# xmcd
#
# Track frame offsets:
#	150
#	16410
#	33632
#	52372
#	70959
#	93098
#	111051
#	126776
#	142364
#	159566
#	180352
#	197396
#	211401
#
# Disc length: 3067 seconds
#
# Revision: 1
# Processed by: cddbd v1.5.2PL0 Copyright (c) Steve Scherf et al.
# Submitted via: audiograbber 1.83.01
#
DISCID=bb0bf90d
DTITLE=Keith Anderson - C'mon
DYEAR=2008
DGENRE=Country
TTITLE0=C'MON!
TTITLE1=Break My Heart
TTITLE2=Somebody Needs A Hug
TTITLE3=She Could've Been Mine
TTITLE4=Sunday Morning In America
TTITLE5=I Still Miss You
TTITLE6=Crazy Over You [Featuring Foster and Lloyd]
TTITLE7=I Ain't Hurtin' Nobody But Me
TTITLE8=Adaliene
TTITLE9=Lost In This Moment
TTITLE10=Closest I've Ever Been
TTITLE11=Beer Run (Bonus Track)
TTITLE12=Jake's Going All The Way (Bonus Track)
EXTD=
EXTT0=
EXTT1=
EXTT2=
EXTT3=
EXTT4=
EXTT5=
EXTT6=
EXTT7=
EXTT8=
EXTT9=
EXTT10=
EXTT11=
EXTT12=
PLAYORDER=
